<?xml version="1.0" encoding="UTF-8"?>
<svg xmlns="http://www.w3.org/2000/svg" width="564" height="115" viewBox="0 0 564 115" fill="none">
  <path d="M12.9195 90.5638C6.05895 81.3288 2 69.8884 2 57.5C2 26.8482 26.8482 2 57.5 2C88.1518 2 113 26.8482 113 57.5C113 88.1518 88.1518 113 57.5 113C52.6025 113 47.8532 112.366 43.3298 111.175L57.5 102.909V71.6273L85.7545 37.3182H26.2182L49.4273 63.2052L81.7182 24.8598" stroke="#223054" stroke-width="4" stroke-linecap="square"></path>
  <path d="M201.897 82.2764H192.469L185.548 52.7444L167.948 84.2529L150.348 52.7444L143.425 82.2764H134L147.051 27.5629L167.948 65.3351L189.174 27.5629L201.897 82.2764Z" fill="#223054"></path>
  <path d="M216.53 82.2766H207.367V29.5417H216.53V82.2766Z" fill="#223054"></path>
  <path d="M251.731 55.909L270.387 82.2765H259.18L246.127 63.8184L233.141 82.2765H221.936L240.525 55.909L221.869 29.5416H233.141L246.127 47.9977L259.114 29.5416H270.32L251.731 55.909Z" fill="#223054"></path>
  <path d="M310.234 42.2964C306.476 38.5384 301.939 36.6604 296.622 36.6604C291.304 36.6604 286.767 38.5384 283.009 42.2964C279.252 46.0544 277.373 50.592 277.373 55.9091C277.373 61.2273 279.252 65.7639 283.009 69.5219C286.767 73.2779 291.304 75.1579 296.622 75.1579C301.939 75.1579 306.476 73.2779 310.234 69.5219C313.99 65.7639 315.87 61.2273 315.87 55.9091C315.87 50.592 313.99 46.0544 310.234 42.2964ZM276.582 35.8698C282.12 30.3323 288.799 27.5631 296.622 27.5631C304.443 27.5631 311.124 30.3323 316.661 35.8698C322.198 41.4072 324.968 48.0873 324.968 55.9091C324.968 63.732 322.198 70.4111 316.661 75.9485C311.124 81.486 304.443 84.2532 296.622 84.2532C288.799 84.2532 282.12 81.486 276.582 75.9485C271.045 70.4111 268.276 63.732 268.276 55.9091C268.276 48.0873 271.045 41.4072 276.582 35.8698Z" fill="#223054"></path>
  <path d="M342.905 72.2773H364.923L362.7 81.4399H331.519L344.501 28.704H353.664L342.905 72.2773Z" fill="#223054"></path>
  <path d="M416.287 41.46C413.362 37.702 409.266 35.824 403.992 35.824C398.718 35.824 393.747 37.7694 389.081 41.6581C384.414 45.5479 381.597 50.0191 380.628 55.0727C379.64 60.3909 380.609 64.9274 383.533 68.6834C386.455 72.4415 390.555 74.3215 395.827 74.3215C401.101 74.3215 406.059 72.3761 410.705 68.4873C415.349 64.5975 418.156 60.1263 419.125 55.0727C420.156 49.7556 419.21 45.216 416.287 41.46ZM406.209 26.7267C411.307 26.7267 415.734 27.9921 419.491 30.5179C423.246 33.0437 425.906 36.4828 427.469 40.8333C429.034 45.1848 429.284 49.9306 428.222 55.0727C427.159 60.2138 424.883 64.9596 421.393 69.3101C417.9 73.6616 413.684 77.1008 408.74 79.6276C403.794 82.1544 398.751 83.4167 393.609 83.4167C388.51 83.4167 384.084 82.1423 380.33 79.5934C376.575 77.0464 373.916 73.6063 372.351 69.2779C370.785 64.9496 370.512 60.2138 371.532 55.0727C373.15 46.9864 377.346 40.2398 384.12 34.8352C390.891 29.4295 398.255 26.7267 406.209 26.7267Z" fill="#223054"></path>
  <path d="M459.989 57.0509H485.763C484.136 64.6092 480.355 70.892 474.425 75.9023C468.492 80.9127 461.528 83.4174 453.53 83.4174C445.795 83.4174 439.901 80.6703 435.847 75.1771C431.792 69.6859 430.547 62.9837 432.11 55.0723C433.186 49.7562 435.479 44.9209 438.992 40.5704C442.503 36.2189 446.72 32.825 451.636 30.3857C456.552 27.9464 461.604 26.7263 466.789 26.7263C474.348 26.7263 480.208 29.3195 484.373 34.5059L477.005 40.8993C475.667 39.2748 473.887 38.0214 471.664 37.1423C469.44 36.2652 467.077 35.8236 464.572 35.8236C459.121 35.8236 454.093 37.6593 449.486 41.3278C444.879 44.9983 442.12 49.5791 441.208 55.0723C440.221 61.0051 441.058 65.6966 443.716 69.1458C446.378 72.596 450.386 74.3211 455.749 74.3211C459.748 74.3211 463.119 73.5626 465.862 72.0457C468.604 70.5299 470.588 68.5644 471.811 66.1472H457.77L459.989 57.0509Z" fill="#223054"></path>
  <path d="M494.076 81.4399H484.913L497.895 28.704H507.058L494.076 81.4399Z" fill="#223054"></path>
  <path d="M546.485 61.5982L549.201 65.158C551.884 61.9945 553.57 58.6328 554.258 55.073C555.289 49.7558 554.344 45.2162 551.42 41.4602C548.495 37.7022 544.399 35.8242 539.125 35.8242C533.852 35.8242 528.88 37.7686 524.214 41.6574C519.548 45.5482 516.73 50.0194 515.763 55.073C514.774 60.3901 515.742 64.9267 518.667 68.6837C521.59 72.4417 525.689 74.3207 530.961 74.3207C534.389 74.3207 537.792 73.4204 541.17 71.6189L533.631 61.5982H546.485ZM548.525 81.4394L546.175 78.2769C540.531 81.704 534.719 83.417 528.743 83.417C523.644 83.417 519.218 82.1425 515.464 79.5936C511.709 77.0467 509.049 73.6065 507.484 69.2782C505.92 64.9498 505.645 60.2141 506.665 55.073C508.284 46.9866 512.48 40.2401 519.253 34.8354C526.025 29.4288 533.389 26.7269 541.342 26.7269C546.44 26.7269 550.867 27.9913 554.624 30.5181C558.379 33.0439 561.04 36.4821 562.603 40.8336C564.167 45.184 564.418 49.9308 563.355 55.073C562.084 61.3135 559.034 66.9163 554.203 71.8814L561.38 81.4394H548.525Z" fill="#223054"></path>
</svg>
