<?xml version="1.0" encoding="UTF-8"?>
<svg xmlns="http://www.w3.org/2000/svg" width="564" height="115" viewBox="0 0 564 115" fill="none">
  <path d="M12.9195 90.5638C6.05895 81.3288 2 69.8884 2 57.5C2 26.8482 26.8482 2 57.5 2C88.1518 2 113 26.8482 113 57.5C113 88.1518 88.1518 113 57.5 113C52.6025 113 47.8532 112.366 43.3298 111.175L57.5 102.909V71.6273L85.7545 37.3182H26.2182L49.4273 63.2052L81.7182 24.8598" stroke="white" stroke-width="4" stroke-linecap="square"></path>
  <path d="M460.581 59.0233H486.728C485.613 66.7566 482.225 73.186 476.563 78.3116C470.902 83.4372 464.014 86 455.9 86C448.054 86 441.88 83.1899 437.377 77.5698C432.874 71.9496 431.136 65.093 432.161 57C432.874 51.5597 434.858 46.614 438.113 42.1628C441.367 37.7116 445.401 34.2496 450.216 31.7767C455.031 29.2589 460.069 28 465.329 28C472.997 28 479.127 30.6527 483.719 35.9581L476.697 42.5C475.226 40.8364 473.331 39.555 471.013 38.6558C468.695 37.7566 466.265 37.307 463.724 37.307C458.196 37.307 453.225 39.1954 448.812 42.9721C444.398 46.7039 441.924 51.3799 441.389 57C440.81 63.0698 441.991 67.8806 444.933 71.4326C447.876 74.9395 452.066 76.693 457.505 76.693C461.562 76.693 464.928 75.9287 467.603 74.4C470.277 72.8264 472.15 70.8031 473.22 68.3302H458.976L460.581 59.0233Z" fill="white"></path>
  <path d="M343.5 73.5506H365.459L363.242 82.7133H332.145L345.092 29.9774H354.23L343.5 73.5506Z" fill="white"></path>
  <path d="M416.685 42.7333C413.767 38.9753 409.682 37.0973 404.423 37.0973C399.163 37.0973 394.205 39.0427 389.552 42.9315C384.898 46.8212 382.088 51.2924 381.122 56.346C380.137 61.6642 381.103 66.2008 384.019 69.9568C386.933 73.7148 391.022 75.5948 396.28 75.5948C401.54 75.5948 406.484 73.6494 411.118 69.7606C415.75 65.8708 418.549 61.3996 419.515 56.346C420.543 51.0289 419.6 46.4893 416.685 42.7333ZM406.634 28C411.718 28 416.133 29.2654 419.88 31.7912C423.625 34.317 426.278 37.7561 427.837 42.1066C429.397 46.4581 429.647 51.2039 428.587 56.346C427.527 61.4872 425.258 66.233 421.777 70.5834C418.294 74.9349 414.088 78.3741 409.158 80.9009C404.225 83.4277 399.196 84.6901 394.068 84.6901C388.983 84.6901 384.569 83.4156 380.825 80.8667C377.08 78.3198 374.428 74.8796 372.867 70.5512C371.306 66.2229 371.033 61.4872 372.05 56.346C373.664 48.2597 377.848 41.5132 384.604 36.1085C391.357 30.7028 398.702 28 406.634 28Z" fill="white"></path>
  <path d="M494.264 82.7133H485.126L498.073 29.9774H507.211L494.264 82.7133Z" fill="white"></path>
  <path d="M546.532 62.8715L549.241 66.4314C551.917 63.2678 553.598 59.9061 554.284 56.3463C555.313 51.0291 554.37 46.4896 551.454 42.7336C548.537 38.9755 544.452 37.0975 539.192 37.0975C533.933 37.0975 528.975 39.0419 524.321 42.9307C519.667 46.8215 516.858 51.2927 515.893 56.3463C514.906 61.6634 515.872 66.2 518.789 69.957C521.704 73.715 525.792 75.594 531.05 75.594C534.468 75.594 537.862 74.6938 541.232 72.8922L533.713 62.8715H546.532ZM548.567 82.7127L546.223 79.5502C540.594 82.9773 534.797 84.6903 528.838 84.6903C523.752 84.6903 519.338 83.4158 515.595 80.8669C511.85 78.32 509.197 74.8798 507.636 70.5515C506.076 66.2231 505.802 61.4874 506.82 56.3463C508.434 48.2599 512.619 41.5134 519.374 36.1087C526.127 30.7021 533.471 28.0002 541.403 28.0002C546.488 28.0002 550.903 29.2647 554.65 31.7915C558.394 34.3172 561.048 37.7554 562.607 42.1069C564.167 46.4574 564.417 51.2042 563.357 56.3463C562.089 62.5868 559.047 68.1897 554.229 73.1547L561.387 82.7127H548.567Z" fill="white"></path>
  <path d="M201.797 84H192.384L185.473 54.432L167.898 85.98L150.324 54.432L143.413 84H134L147.033 29.22L167.898 67.038L189.093 29.22L201.797 84Z" fill="white"></path>
  <path d="M216.43 84H207.281V31.2H216.43V84Z" fill="white"></path>
  <path d="M251.556 57.6L270.184 84H258.994L245.961 65.52L232.994 84H221.804L240.366 57.6L221.739 31.2H232.994L245.961 49.68L258.928 31.2H270.118L251.556 57.6Z" fill="white"></path>
  <path d="M276.396 37.536C281.925 31.992 288.595 29.22 296.406 29.22C304.217 29.22 310.887 31.992 316.416 37.536C321.945 43.08 324.71 49.768 324.71 57.6C324.71 65.432 321.945 72.12 316.416 77.664C310.887 83.208 304.217 85.98 296.406 85.98C288.595 85.98 281.925 83.208 276.396 77.664C270.867 72.12 268.103 65.432 268.103 57.6C268.103 49.768 270.867 43.08 276.396 37.536ZM309.966 44.004C306.236 40.22 301.716 38.328 296.406 38.328C291.097 38.328 286.555 40.22 282.781 44.004C279.051 47.744 277.186 52.276 277.186 57.6C277.186 62.924 279.051 67.478 282.781 71.262C286.555 75.002 291.097 76.872 296.406 76.872C301.716 76.872 306.236 75.002 309.966 71.262C313.739 67.478 315.626 62.924 315.626 57.6C315.626 52.276 313.739 47.744 309.966 44.004Z" fill="white"></path>
</svg>
