<?xml version="1.0" encoding="UTF-8"?>
<svg xmlns="http://www.w3.org/2000/svg" width="564" height="115" viewBox="0 0 564 115" fill="none">
  <g clip-path="url(#clip0_223_183)">
    <path d="M12.9195 90.5638C6.05895 81.3288 2 69.8884 2 57.5C2 26.8482 26.8482 2 57.5 2C88.1518 2 113 26.8482 113 57.5C113 88.1518 88.1518 113 57.5 113C52.6025 113 47.8532 112.366 43.3298 111.175L57.5 102.909V71.6273L85.7545 37.3182H26.2182L49.4273 63.2052L81.7182 24.8598" stroke="#1B729D" stroke-width="4" stroke-linecap="square"></path>
    <path d="M460.581 59.0233H486.728C485.613 66.7566 482.225 73.186 476.563 78.3116C470.902 83.4372 464.014 86 455.9 86C448.054 86 441.88 83.1899 437.377 77.5698C432.874 71.9496 431.136 65.093 432.161 57C432.874 51.5597 434.858 46.614 438.113 42.1628C441.367 37.7116 445.401 34.2496 450.216 31.7767C455.031 29.2589 460.069 28 465.329 28C472.997 28 479.127 30.6527 483.719 35.9581L476.697 42.5C475.226 40.8364 473.331 39.555 471.013 38.6558C468.695 37.7566 466.265 37.307 463.724 37.307C458.196 37.307 453.225 39.1954 448.812 42.9721C444.398 46.7039 441.924 51.3799 441.389 57C440.81 63.0698 441.991 67.8806 444.933 71.4326C447.876 74.9395 452.066 76.693 457.505 76.693C461.562 76.693 464.928 75.9287 467.603 74.4C470.277 72.8264 472.15 70.8031 473.22 68.3302H458.976L460.581 59.0233Z" fill="#1B729D"></path>
    <path d="M343.5 73.5507H365.459L363.242 82.7134H332.145L345.092 29.9775H354.23L343.5 73.5507Z" fill="#1B729D"></path>
    <path d="M416.685 42.7333C413.767 38.9753 409.682 37.0973 404.423 37.0973C399.163 37.0973 394.205 39.0427 389.552 42.9315C384.898 46.8212 382.088 51.2924 381.122 56.346C380.137 61.6642 381.103 66.2008 384.019 69.9568C386.933 73.7148 391.022 75.5948 396.28 75.5948C401.54 75.5948 406.484 73.6494 411.118 69.7606C415.75 65.8708 418.549 61.3996 419.515 56.346C420.543 51.0289 419.6 46.4893 416.685 42.7333ZM406.634 28C411.718 28 416.133 29.2654 419.88 31.7912C423.625 34.317 426.278 37.7561 427.837 42.1066C429.397 46.4581 429.647 51.2039 428.587 56.346C427.527 61.4872 425.258 66.233 421.777 70.5834C418.294 74.9349 414.088 78.3741 409.158 80.9009C404.225 83.4277 399.196 84.6901 394.068 84.6901C388.983 84.6901 384.569 83.4156 380.825 80.8667C377.08 78.3198 374.428 74.8796 372.867 70.5512C371.306 66.2229 371.033 61.4872 372.05 56.346C373.664 48.2597 377.848 41.5132 384.604 36.1085C391.357 30.7028 398.702 28 406.634 28Z" fill="#1B729D"></path>
    <path d="M494.264 82.7134H485.126L498.073 29.9775H507.211L494.264 82.7134Z" fill="#1B729D"></path>
    <path d="M546.532 62.8713L549.241 66.4312C551.917 63.2676 553.598 59.9059 554.284 56.3461C555.313 51.0289 554.37 46.4894 551.454 42.7334C548.537 38.9753 544.452 37.0973 539.192 37.0973C533.933 37.0973 528.975 39.0417 524.321 42.9305C519.667 46.8213 516.858 51.2925 515.893 56.3461C514.906 61.6632 515.872 66.1998 518.789 69.9568C521.704 73.7148 525.792 75.5938 531.05 75.5938C534.468 75.5938 537.862 74.6936 541.232 72.892L533.713 62.8713H546.532ZM548.567 82.7125L546.223 79.55C540.594 82.9771 534.797 84.6901 528.838 84.6901C523.752 84.6901 519.338 83.4156 515.595 80.8667C511.85 78.3198 509.197 74.8796 507.636 70.5513C506.076 66.2229 505.802 61.4872 506.82 56.3461C508.434 48.2597 512.619 41.5132 519.374 36.1085C526.127 30.7019 533.471 28 541.403 28C546.488 28 550.903 29.2645 554.65 31.7913C558.394 34.317 561.048 37.7552 562.607 42.1067C564.167 46.4572 564.417 51.204 563.357 56.3461C562.089 62.5866 559.047 68.1895 554.229 73.1545L561.387 82.7125H548.567Z" fill="#1B729D"></path>
    <path d="M201.797 84.0002H192.384L185.473 54.4322L167.898 85.9802L150.324 54.4322L143.413 84.0002H134L147.033 29.2202L167.898 67.0382L189.093 29.2202L201.797 84.0002Z" fill="#1B729D"></path>
    <path d="M216.43 84.0002H207.281V31.2002H216.43V84.0002Z" fill="#1B729D"></path>
    <path d="M251.556 57.6002L270.184 84.0002H258.994L245.961 65.5202L232.994 84.0002H221.804L240.366 57.6002L221.739 31.2002H232.994L245.961 49.6802L258.928 31.2002H270.118L251.556 57.6002Z" fill="#1B729D"></path>
    <path d="M276.396 37.5362C281.925 31.9922 288.595 29.2202 296.406 29.2202C304.217 29.2202 310.887 31.9922 316.416 37.5362C321.945 43.0802 324.71 49.7682 324.71 57.6002C324.71 65.4322 321.945 72.1202 316.416 77.6642C310.887 83.2082 304.217 85.9802 296.406 85.9802C288.595 85.9802 281.925 83.2082 276.396 77.6642C270.867 72.1202 268.103 65.4322 268.103 57.6002C268.103 49.7682 270.867 43.0802 276.396 37.5362ZM309.966 44.0042C306.236 40.2202 301.716 38.3282 296.406 38.3282C291.097 38.3282 286.555 40.2202 282.781 44.0042C279.051 47.7442 277.186 52.2762 277.186 57.6002C277.186 62.9242 279.051 67.4782 282.781 71.2622C286.555 75.0022 291.097 76.8722 296.406 76.8722C301.716 76.8722 306.236 75.0022 309.966 71.2622C313.739 67.4782 315.626 62.9242 315.626 57.6002C315.626 52.2762 313.739 47.7442 309.966 44.0042Z" fill="#1B729D"></path>
  </g>
  <defs>
    <clipPath id="clip0_223_183">
      <rect width="564" height="115" fill="white"></rect>
    </clipPath>
  </defs>
</svg>
